<?xml version="1.0" encoding="UTF-8" standalone="no"?>
<!-- Created with Inkscape (http://www.inkscape.org/) -->

<svg
   width="122"
   height="40"
   viewBox="0 0 32.279152 10.583333"
   version="1.1"
   id="svg1"
   inkscape:version="1.4.2 (f4327f4, 2025-05-13)"
   sodipodi:docname="Menu_Emulator.svg"
   inkscape:export-filename="MenuBackground.png"
   inkscape:export-xdpi="96"
   inkscape:export-ydpi="96"
   xmlns:inkscape="http://www.inkscape.org/namespaces/inkscape"
   xmlns:sodipodi="http://sodipodi.sourceforge.net/DTD/sodipodi-0.dtd"
   xmlns="http://www.w3.org/2000/svg"
   xmlns:svg="http://www.w3.org/2000/svg">
  <sodipodi:namedview
     id="namedview1"
     pagecolor="#505050"
     bordercolor="#eeeeee"
     borderopacity="1"
     inkscape:showpageshadow="0"
     inkscape:pageopacity="0"
     inkscape:pagecheckerboard="0"
     inkscape:deskcolor="#505050"
     inkscape:document-units="mm"
     inkscape:zoom="6.0934344"
     inkscape:cx="66.793203"
     inkscape:cy="26.668048"
     inkscape:window-width="1920"
     inkscape:window-height="1057"
     inkscape:window-x="1912"
     inkscape:window-y="-8"
     inkscape:window-maximized="1"
     inkscape:current-layer="layer1" />
  <defs
     id="defs1" />
  <g
     inkscape:label="Layer 1"
     inkscape:groupmode="layer"
     id="layer1">
    <rect
       style="font-variation-settings:'opsz' 32, 'wght' 500;fill:#ffffff;fill-opacity:0.01;stroke:none;stroke-width:0.382623"
       id="rect1"
       width="32.279167"
       height="10.583333"
       x="0"
       y="0" />
    <path
       style="font-size:6.35px;font-family:'Inter Variable';-inkscape-font-specification:'Inter Variable, @opsz=32,wght=500';font-variation-settings:'opsz' 32, 'wght' 500;fill:#ffffff;stroke-width:0.3"
       d="m 3.8011105,7.0433427 v -4.619873 h 3.106787 V 3.028084 h -2.418457 v 1.3611572 h 2.238623 v 0.5984131 h -2.238623 v 1.4510742 h 2.418457 v 0.6046142 z m 3.6865967,0 V 3.769124 H 8.1233273 V 4.4605547 H 8.0613153 Q 8.1543333,4.2125078 8.3093621,4.0450761 8.467492,3.8745439 8.6721307,3.7908281 q 0.2046387,-0.086816 0.4278808,-0.086816 0.3813721,0 0.6511231,0.2201416 0.2728514,0.217041 0.3348634,0.5364014 H 9.9836788 Q 10.051892,4.243514 10.20382,4.0729818 q 0.15503,-0.1705322 0.378272,-0.269751 0.223242,-0.099219 0.496094,-0.099219 0.306958,0 0.555005,0.1333255 0.248046,0.1333252 0.393774,0.396875 0.145727,0.2604492 0.145727,0.6542236 V 7.0433427 H 11.515368 V 4.9442461 q 0,-0.3503662 -0.195337,-0.5084961 -0.195337,-0.1581299 -0.461987,-0.1581299 -0.217041,0 -0.375171,0.093018 -0.15813,0.093017 -0.244946,0.254248 -0.08682,0.1612305 -0.08682,0.3720703 V 7.0433427 H 9.5061886 V 4.9008379 q 0,-0.2821534 -0.1829346,-0.4526856 Q 9.14342,4.2776201 8.8643673,4.2776201 q -0.1891357,0 -0.3565674,0.089917 -0.164331,0.089917 -0.2666503,0.2666504 -0.099219,0.1736328 -0.099219,0.434082 v 1.9750732 z m 6.6073488,0.065112 q -0.334864,0 -0.604615,-0.1457275 Q 13.220691,6.8138993 13.065661,6.5255449 12.910632,6.2340898 12.910632,5.8093095 V 3.769124 h 0.654224 v 1.9595703 q 0,0.3906738 0.189135,0.5922119 0.189136,0.2015381 0.5302,0.2015381 0.220142,0 0.396875,-0.089917 Q 14.8609,6.3426103 14.96632,6.150374 15.07174,5.9550371 15.07174,5.6542802 V 3.769124 h 0.654224 V 7.0433427 H 15.084143 V 6.2309892 h 0.151928 q -0.15813,0.4371826 -0.446484,0.6573242 -0.285254,0.2201416 -0.694531,0.2201413 z m 3.023071,-4.6849853 v 4.619873 h -0.654224 v -4.619873 z m 1.736328,4.672583 q -0.325561,0 -0.58291,-0.1116211 -0.254248,-0.1116208 -0.403076,-0.3317624 -0.148828,-0.2201416 -0.148828,-0.5457031 0,-0.2790528 0.10542,-0.4588867 0.10852,-0.179834 0.291455,-0.2852539 0.182934,-0.10542 0.415478,-0.1581299 0.232544,-0.055811 0.480591,-0.083716 0.310059,-0.040308 0.486792,-0.062012 0.179834,-0.024805 0.254248,-0.074414 0.07752,-0.05271 0.07752,-0.1705323 V 4.786116 q 0,-0.1581299 -0.07752,-0.2790528 -0.07751,-0.1240234 -0.226343,-0.1953369 -0.148828,-0.071313 -0.356567,-0.071313 -0.207739,0 -0.36897,0.068213 -0.15813,0.068213 -0.254248,0.1891358 -0.09302,0.1178223 -0.10542,0.269751 h -0.641821 q 0.0155,-0.3131592 0.189136,-0.5519043 0.173633,-0.2387451 0.47749,-0.3751709 0.303857,-0.1364258 0.713135,-0.1364258 0.300757,0 0.542602,0.077515 0.241846,0.077515 0.409278,0.2232422 0.170532,0.142627 0.257348,0.3441651 0.08992,0.201538 0.08992,0.4495849 V 7.0433427 H 19.83424 V 6.5782548 h -0.0124 Q 19.75363,6.71158 19.635805,6.8294023 19.517983,6.9472245 19.325746,7.0216386 19.13661,7.0960526 18.854457,7.0960526 Z M 18.98778,6.5689531 q 0.288355,0 0.47439,-0.1023194 0.189136,-0.1054199 0.279053,-0.2759521 0.09302,-0.1705322 0.09302,-0.3720703 V 5.4341386 q -0.03411,0.027905 -0.111621,0.05271 -0.07441,0.021704 -0.182934,0.043408 -0.108521,0.018604 -0.235645,0.040308 -0.127124,0.021704 -0.254248,0.037207 -0.179834,0.024805 -0.334863,0.083716 -0.155029,0.05581 -0.251148,0.1581298 -0.09302,0.1023194 -0.09302,0.269751 0,0.1395264 0.07441,0.2418457 0.07441,0.099219 0.21394,0.1550293 0.139527,0.05271 0.328662,0.05271 z M 22.795299,3.769124 V 4.3086259 H 20.897741 V 3.769124 Z M 21.47445,2.8761553 h 0.654223 v 3.3021239 q 0,0.179834 0.07441,0.2542481 0.07751,0.071313 0.272852,0.071313 0.07441,0 0.164331,0 0.08992,0 0.155029,0 v 0.5395019 q -0.08062,0 -0.195337,0 -0.111621,0 -0.217041,0 -0.461987,0 -0.685229,-0.1922363 Q 21.47445,6.6557695 21.47445,6.2619951 Z m 3.189885,4.2416015 q -0.468189,0 -0.821655,-0.217041 -0.353467,-0.2170411 -0.551905,-0.6015137 -0.195337,-0.3844727 -0.195337,-0.8867676 0,-0.5084961 0.195337,-0.8929687 0.198438,-0.3875732 0.551905,-0.6046143 0.353466,-0.2201416 0.821655,-0.2201416 0.468188,0 0.818555,0.2201416 0.353466,0.2170411 0.548803,0.6046143 0.198438,0.3844726 0.198438,0.8929687 0,0.5022949 -0.198438,0.8867676 -0.195337,0.3844726 -0.548803,0.6015137 -0.350367,0.217041 -0.818555,0.217041 z m 0,-0.5643067 q 0.279053,0 0.480591,-0.1395263 0.204638,-0.142627 0.313159,-0.3999756 0.111621,-0.2573486 0.111621,-0.6015137 0,-0.3534668 -0.111621,-0.6108154 -0.108521,-0.2573486 -0.313159,-0.3999756 -0.201538,-0.1426269 -0.480591,-0.1426269 -0.279053,0 -0.483692,0.1426269 -0.201538,0.1395264 -0.313159,0.3999756 -0.10852,0.2573486 -0.10852,0.6108154 0,0.3472656 0.10852,0.6046143 0.111621,0.254248 0.313159,0.396875 0.201539,0.1395263 0.483692,0.1395263 z m 2.145606,0.4898926 V 3.769124 h 0.626318 v 0.5302002 h 0.0124 q 0.08992,-0.269751 0.282153,-0.4185791 0.195337,-0.1519287 0.508496,-0.1519287 0.07441,0 0.136426,0.0062 0.06511,0.0031 0.102319,0.0093 v 0.6108154 q -0.03721,-0.0093 -0.133325,-0.018603 -0.09612,-0.012402 -0.21084,-0.012402 -0.182934,0 -0.337964,0.083716 -0.151928,0.083716 -0.241845,0.2573486 -0.08992,0.1736328 -0.08992,0.4433838 v 1.9347656 z"
       id="text1"
       aria-label="Emulator" />
  </g>
</svg>
