<?xml version="1.0" encoding="UTF-8" standalone="no"?>
<!-- Created with Inkscape (http://www.inkscape.org/) -->

<svg
   width="75"
   height="40"
   viewBox="0 0 19.843751 10.583333"
   version="1.1"
   id="svg1"
   inkscape:version="1.4.2 (f4327f4, 2025-05-13)"
   sodipodi:docname="Menu_Help.svg"
   inkscape:export-filename="MenuBackground.png"
   inkscape:export-xdpi="96"
   inkscape:export-ydpi="96"
   xmlns:inkscape="http://www.inkscape.org/namespaces/inkscape"
   xmlns:sodipodi="http://sodipodi.sourceforge.net/DTD/sodipodi-0.dtd"
   xmlns="http://www.w3.org/2000/svg"
   xmlns:svg="http://www.w3.org/2000/svg">
  <sodipodi:namedview
     id="namedview1"
     pagecolor="#505050"
     bordercolor="#eeeeee"
     borderopacity="1"
     inkscape:showpageshadow="0"
     inkscape:pageopacity="0"
     inkscape:pagecheckerboard="0"
     inkscape:deskcolor="#505050"
     inkscape:document-units="mm"
     inkscape:zoom="6.0934344"
     inkscape:cx="66.793203"
     inkscape:cy="39.3046"
     inkscape:window-width="1920"
     inkscape:window-height="1057"
     inkscape:window-x="1912"
     inkscape:window-y="-8"
     inkscape:window-maximized="1"
     inkscape:current-layer="layer1" />
  <defs
     id="defs1" />
  <g
     inkscape:label="Layer 1"
     inkscape:groupmode="layer"
     id="layer1">
    <rect
       style="font-variation-settings:'opsz' 32, 'wght' 500;fill:#ffffff;fill-opacity:0.01;stroke:none;stroke-width:0.3"
       id="rect1"
       width="19.84375"
       height="10.583333"
       x="0"
       y="0" />
    <path
       style="font-size:6.35px;font-family:'Inter Variable';-inkscape-font-specification:'Inter Variable, @opsz=32,wght=500';font-variation-settings:'opsz' 32, 'wght' 500;fill:#ffffff;stroke-width:0.3"
       d="M 3.7238049,6.9535806 V 2.3337076 H 4.412135 V 4.2901773 H 6.7096692 V 2.3337076 h 0.68833 v 4.619873 h -0.68833 V 4.8916909 H 4.412135 v 2.0618897 z m 5.8632081,0.074414 q -0.486792,0 -0.8371582,-0.2201416 Q 8.4025892,6.5877114 8.2134535,6.2032388 8.0274183,5.8156655 8.0274183,5.3226724 q 0,-0.5022949 0.1953369,-0.8867676 0.1953369,-0.3875732 0.539502,-0.6077148 0.344165,-0.2232422 0.7906494,-0.2232422 0.3472656,0 0.6263184,0.1240234 0.282153,0.1240235 0.483691,0.3534668 0.201538,0.2263428 0.310059,0.539502 0.10852,0.3131591 0.10852,0.6945312 V 5.4932046 H 8.321974 V 4.9971109 h 2.415356 l -0.288354,0.1519287 q 0,-0.3038574 -0.108521,-0.5270996 Q 10.231935,4.3955972 10.030397,4.2746743 9.8319593,4.1506509 9.5591078,4.1506509 q -0.269751,0 -0.4681885,0.1240234 Q 8.8924818,4.3955972 8.7808607,4.62194 8.6723402,4.8451822 8.6723402,5.1490396 v 0.2821533 q 0,0.3100586 0.1085205,0.5488037 0.1085205,0.2356445 0.3131592,0.3689697 0.2077392,0.1333252 0.5022949,0.1333252 0.2139404,0 0.3782715,-0.065112 0.1643307,-0.068213 0.2728517,-0.1860352 0.10852,-0.1178222 0.155029,-0.2728515 h 0.629419 Q 10.972976,6.2745525 10.768336,6.5163982 10.566798,6.7551434 10.25984,6.8915691 9.9559827,7.0279949 9.587013,7.0279946 Z m 2.713013,-4.694287 v 4.619873 h -0.654224 v -4.619873 z m 0.737939,5.9159179 V 3.6793619 h 0.641821 v 0.471289 h 0.0093 q 0.102319,-0.179834 0.257349,-0.2976562 0.158129,-0.1178223 0.350366,-0.1767334 0.195337,-0.062012 0.406177,-0.062012 0.42478,0 0.74104,0.217041 0.31936,0.2139404 0.496093,0.598413 0.179834,0.3813721 0.179834,0.8867676 0,0.5053955 -0.176733,0.8898682 -0.176734,0.381372 -0.496094,0.598413 -0.31936,0.2139405 -0.747241,0.2139405 -0.21084,0 -0.399976,-0.062012 Q 14.113868,6.8946694 13.96194,6.770646 13.810011,6.6466226 13.70149,6.4605874 h -0.0093 v 1.7890381 z m 1.528589,-1.7952393 q 0.26665,0 0.465088,-0.1302246 0.198437,-0.1333252 0.310058,-0.3844726 0.114722,-0.2542481 0.114722,-0.6232178 0,-0.3720703 -0.114722,-0.6263183 -0.111621,-0.2542481 -0.310058,-0.3844727 -0.198438,-0.1302246 -0.465088,-0.1302246 -0.279053,0 -0.486792,0.1426269 -0.204639,0.1395264 -0.319361,0.396875 -0.111621,0.2542481 -0.111621,0.6015137 0,0.3410645 0.111621,0.5984131 0.114722,0.2573486 0.319361,0.3999756 0.207739,0.1395263 0.486792,0.1395263 z"
       id="text1"
       aria-label="Help" />
  </g>
</svg>
