<?xml version="1.0" encoding="UTF-8" standalone="no"?>
<!-- Created with Inkscape (http://www.inkscape.org/) -->

<svg
   width="83"
   height="40"
   viewBox="0 0 21.960415 10.583333"
   version="1.1"
   id="svg1"
   inkscape:version="1.4.2 (f4327f4, 2025-05-13)"
   sodipodi:docname="Menu_Sidetext.svg"
   inkscape:export-filename="MenuBackground.png"
   inkscape:export-xdpi="96"
   inkscape:export-ydpi="96"
   xmlns:inkscape="http://www.inkscape.org/namespaces/inkscape"
   xmlns:sodipodi="http://sodipodi.sourceforge.net/DTD/sodipodi-0.dtd"
   xmlns="http://www.w3.org/2000/svg"
   xmlns:svg="http://www.w3.org/2000/svg">
  <sodipodi:namedview
     id="namedview1"
     pagecolor="#505050"
     bordercolor="#eeeeee"
     borderopacity="1"
     inkscape:showpageshadow="0"
     inkscape:pageopacity="0"
     inkscape:pagecheckerboard="0"
     inkscape:deskcolor="#505050"
     inkscape:document-units="mm"
     inkscape:zoom="6.0934344"
     inkscape:cx="66.793203"
     inkscape:cy="39.3046"
     inkscape:window-width="1920"
     inkscape:window-height="1057"
     inkscape:window-x="1912"
     inkscape:window-y="-8"
     inkscape:window-maximized="1"
     inkscape:current-layer="layer1" />
  <defs
     id="defs1" />
  <g
     inkscape:label="Layer 1"
     inkscape:groupmode="layer"
     id="layer1">
    <rect
       style="font-variation-settings:'opsz' 32, 'wght' 500;fill:#ffffff;fill-opacity:0.01;stroke:none;stroke-width:0.315595"
       id="rect1"
       width="21.960417"
       height="10.583333"
       x="0"
       y="0" />
    <g
       id="g3"
       transform="translate(-0.06405134,0.5737063)">
      <path
         d="M 2.2689675,4.1148129 V 1.8060694 H 3.063857 q 0.2231269,0 0.3858236,0.074376 0.1642462,0.072826 0.2525672,0.2091815 0.088321,0.1348058 0.088321,0.3207449 0,0.1332563 -0.049584,0.2355228 -0.048034,0.1022665 -0.1348058,0.1719936 -0.086772,0.069727 -0.2029835,0.106915 v 0.0031 q 0.1301574,0.021693 0.2386218,0.08987 0.1084645,0.066628 0.1750926,0.1828401 0.066628,0.1146625 0.066628,0.2773591 0,0.1921371 -0.08987,0.3362399 -0.088321,0.1425532 -0.2634137,0.2215773 -0.1750926,0.079024 -0.4323084,0.079024 z M 2.4781489,3.9257748 h 0.6197969 q 0.2727107,0 0.4214619,-0.1162119 0.1503008,-0.1162119 0.1503008,-0.3238439 0,-0.1410038 -0.071277,-0.2417208 Q 3.5287047,3.1432812 3.4016463,3.089049 3.274588,3.0348168 3.1087923,3.0348168 H 2.4781489 Z m 0,-1.0768971 h 0.6182474 q 0.1487513,0 0.2572158,-0.054232 0.1100139,-0.055782 0.1688946,-0.1518503 0.06043,-0.096069 0.06043,-0.2215774 0,-0.198335 -0.1394543,-0.3114479 Q 3.3055778,1.9951075 3.0716045,1.9951075 H 2.4781489 Z m 2.2219719,1.290727 q -0.1549493,0 -0.2835571,-0.052683 -0.1286079,-0.054232 -0.204533,-0.1611472 -0.075925,-0.1084645 -0.075925,-0.2680622 0,-0.1286078 0.048034,-0.2122804 0.049584,-0.083673 0.1379049,-0.1348058 0.088321,-0.052683 0.2091814,-0.082123 0.1208604,-0.02944 0.2649632,-0.048034 0.1533997,-0.021693 0.2494682,-0.035638 0.096069,-0.015495 0.1410038,-0.044935 0.046485,-0.03099 0.046485,-0.094519 v -0.024792 q 0,-0.1022665 -0.051133,-0.1812906 -0.051133,-0.079024 -0.1456522,-0.1239593 -0.09297,-0.046485 -0.2184784,-0.046485 -0.1255089,0 -0.2246764,0.044935 -0.097618,0.043386 -0.1564987,0.1208604 -0.057331,0.077475 -0.06198,0.1735431 h -0.201434 q 0.00465,-0.1487513 0.088321,-0.2649632 0.083672,-0.1177614 0.2262258,-0.185939 0.1441028,-0.068178 0.3300419,-0.068178 0.1363553,0 0.2494682,0.038737 0.113113,0.038737 0.1936866,0.1100139 0.082123,0.071277 0.1255088,0.1688947 0.044935,0.096068 0.044935,0.2138299 V 4.1148129 H 5.2331461 V 3.8467507 h -0.00465 q -0.035638,0.075925 -0.103816,0.1441028 -0.066628,0.066628 -0.1719936,0.1084644 -0.1053655,0.040287 -0.2525672,0.040287 z m 0.024792,-0.1812906 q 0.1642462,0 0.2773591,-0.06198 0.113113,-0.06198 0.1719937,-0.1704441 0.058881,-0.110014 0.058881,-0.2510177 V 3.2455477 q -0.021693,0.020143 -0.063529,0.035638 -0.041836,0.013946 -0.100717,0.027891 -0.058881,0.012396 -0.1301573,0.023242 -0.071277,0.010846 -0.1518503,0.021693 -0.1363553,0.018594 -0.2370723,0.055782 -0.100717,0.035638 -0.1564987,0.097618 -0.054232,0.06043 -0.054232,0.1595977 0,0.092969 0.049584,0.1580482 0.049584,0.065079 0.1363553,0.099167 0.086772,0.034089 0.1998845,0.034089 z M 6.4649924,2.478549 V 2.6536417 H 5.645311 V 2.478549 Z M 5.9242196,2.0322953 h 0.1998845 v 1.7152879 q 0,0.103816 0.044935,0.1487512 0.046485,0.043386 0.1533997,0.043386 0.034089,0 0.071277,0 0.038737,0 0.071277,0 v 0.1750927 q -0.037188,0 -0.079024,0 -0.041836,0 -0.079024,0 -0.1905876,0 -0.2866561,-0.088321 -0.096069,-0.088321 -0.096069,-0.2603147 z M 6.7717918,4.1148129 V 1.8060694 h 0.7948895 q 0.2231269,0 0.3858236,0.074376 0.1642462,0.072826 0.2525672,0.2091815 0.088321,0.1348058 0.088321,0.3207449 0,0.1332563 -0.049584,0.2355228 -0.048034,0.1022665 -0.1348058,0.1719936 -0.086772,0.069727 -0.2029835,0.106915 v 0.0031 q 0.1301574,0.021693 0.2386218,0.08987 0.1084645,0.066628 0.1750926,0.1828401 0.066628,0.1146625 0.066628,0.2773591 0,0.1921371 -0.08987,0.3362399 -0.088321,0.1425532 -0.2634137,0.2215773 -0.1750926,0.079024 -0.4323084,0.079024 z M 6.9809733,3.9257748 h 0.6197968 q 0.2727107,0 0.4214619,-0.1162119 0.1503008,-0.1162119 0.1503008,-0.3238439 0,-0.1410038 -0.071277,-0.2417208 Q 8.031529,3.1432812 7.9044706,3.089049 7.7774123,3.0348168 7.6116166,3.0348168 H 6.9809733 Z m 0,-1.0768971 h 0.6182474 q 0.1487512,0 0.2572157,-0.054232 0.1100139,-0.055782 0.1688946,-0.1518503 0.06043,-0.096069 0.06043,-0.2215774 0,-0.198335 -0.1394543,-0.3114479 Q 7.8084021,1.9951075 7.5744288,1.9951075 H 6.9809733 Z m 2.3924159,1.2984745 q -0.2200279,0 -0.3889225,-0.1084645 Q 8.815572,3.9288738 8.721053,3.7382862 q -0.09297,-0.192137 -0.09297,-0.4400558 0,-0.2479187 0.09297,-0.4400558 0.094519,-0.1936865 0.2634137,-0.3021509 0.1688946,-0.110014 0.3889225,-0.110014 0.2231269,0 0.3904721,0.110014 0.1673451,0.1084644 0.2603147,0.3021509 0.09452,0.1921371 0.09452,0.4400558 0,0.2479188 -0.09452,0.4400558 -0.09297,0.1905876 -0.2603147,0.3006015 -0.1673452,0.1084645 -0.3904721,0.1084645 z m 0,-0.1828401 q 0.1673452,0 0.2882056,-0.082123 0.1224099,-0.083673 0.189038,-0.2339733 0.066628,-0.1518503 0.066628,-0.3501853 0,-0.1998845 -0.066628,-0.3501852 -0.066628,-0.1503008 -0.189038,-0.2339733 -0.1208604,-0.085222 -0.2882056,-0.085222 -0.1642462,0 -0.2882055,0.083673 -0.1224099,0.083673 -0.1890381,0.2355228 -0.066628,0.1503007 -0.066628,0.3501852 0,0.1998845 0.066628,0.3501853 0.066628,0.1503007 0.1890381,0.2339733 0.1224098,0.082123 0.2882055,0.082123 z M 10.191007,4.1148129 10.871234,3.2037114 V 3.3555617 L 10.223546,2.478549 h 0.237073 l 0.257215,0.3548338 q 0.06663,0.09297 0.131707,0.185939 0.06508,0.09297 0.131707,0.1874886 h -0.100717 q 0.06818,-0.094519 0.133256,-0.1874886 0.06508,-0.09297 0.133257,-0.185939 L 11.405809,2.478549 h 0.233973 L 10.992094,3.3555617 V 3.2021619 l 0.675579,0.912651 H 11.43215 L 11.136197,3.7103954 q -0.06508,-0.09142 -0.128608,-0.1797411 -0.06353,-0.088321 -0.127058,-0.1797411 h 0.100717 q -0.06508,0.09142 -0.128608,0.1797411 -0.06353,0.088321 -0.130157,0.1797411 L 10.42498,4.1148129 Z M 12.778659,3.0782025 V 3.2672406 H 11.817974 V 3.0782025 Z m 1.121832,1.0722487 q -0.247919,0 -0.430759,-0.086772 Q 13.286892,3.9753585 13.184625,3.8157608 13.083908,3.6546137 13.07926,3.4376847 h 0.21383 q 0.0046,0.1595977 0.07747,0.2773592 0.07283,0.1162119 0.207631,0.1797411 0.136356,0.063529 0.322295,0.063529 0.178191,0 0.311448,-0.055782 0.133256,-0.057331 0.206082,-0.1595977 0.07438,-0.1022665 0.07438,-0.2386218 0,-0.1053655 -0.04803,-0.1843896 -0.04803,-0.079024 -0.1534,-0.1394543 -0.103816,-0.06043 -0.278909,-0.1053654 L 13.753289,3.0053764 Q 13.426346,2.9186048 13.277595,2.7760516 13.128844,2.6319488 13.128844,2.4088219 q 0,-0.1905876 0.09452,-0.3331408 0.09607,-0.1441028 0.266512,-0.2246764 0.171994,-0.080574 0.39822,-0.080574 0.226226,0 0.393571,0.085222 0.168895,0.083673 0.263414,0.2370723 0.09607,0.1533997 0.103816,0.3594822 H 14.441264 Q 14.427318,2.2290808 14.277017,2.097374 14.128266,1.9641176 13.881897,1.9641176 q -0.158048,0 -0.282008,0.055782 -0.12241,0.055782 -0.193686,0.1549493 -0.06973,0.097618 -0.06973,0.2246763 0,0.097618 0.04803,0.1735432 0.04958,0.075925 0.1534,0.1332563 0.103816,0.057331 0.269611,0.1022665 l 0.261865,0.071277 q 0.162696,0.043386 0.280458,0.1022665 0.119311,0.057331 0.196785,0.1332564 0.07902,0.074376 0.117762,0.1704441 0.03874,0.094519 0.03874,0.2107309 0,0.1921371 -0.100717,0.3408883 -0.100717,0.1472018 -0.282008,0.2308744 -0.179741,0.082123 -0.419912,0.082123 z M 15.229955,3.1215883 V 4.1148129 H 15.03162 V 2.478549 h 0.195236 v 0.3889226 h -0.05578 q 0.07128,-0.2138299 0.221578,-0.3160964 0.15185,-0.1022665 0.345537,-0.1022665 0.170444,0 0.306799,0.074376 0.136355,0.072826 0.215379,0.2138299 0.08057,0.1394544 0.08057,0.3439873 V 4.1148129 H 16.141057 V 3.0936975 q 0,-0.2200279 -0.117762,-0.3393388 -0.116212,-0.1193109 -0.317646,-0.1193109 -0.133256,0 -0.241721,0.054232 -0.106915,0.054232 -0.170444,0.1626967 -0.06353,0.1084644 -0.06353,0.2696116 z m 1.994197,1.0180164 q -0.154949,0 -0.283557,-0.052683 -0.128608,-0.054232 -0.204533,-0.1611472 -0.07593,-0.1084645 -0.07593,-0.2680622 0,-0.1286078 0.04803,-0.2122804 0.04958,-0.083673 0.137905,-0.1348058 0.08832,-0.052683 0.209181,-0.082123 0.120861,-0.02944 0.264963,-0.048034 0.1534,-0.021693 0.249469,-0.035638 0.09607,-0.015495 0.141003,-0.044935 0.04648,-0.03099 0.04648,-0.094519 v -0.024792 q 0,-0.1022665 -0.05113,-0.1812906 -0.05113,-0.079024 -0.145652,-0.1239593 -0.09297,-0.046485 -0.218479,-0.046485 -0.125509,0 -0.224676,0.044935 -0.09762,0.043386 -0.156499,0.1208604 -0.05733,0.077475 -0.06198,0.1735431 h -0.201434 q 0.0046,-0.1487513 0.08832,-0.2649632 0.08367,-0.1177614 0.226225,-0.185939 0.144103,-0.068178 0.330042,-0.068178 0.136356,0 0.249469,0.038737 0.113113,0.038737 0.193686,0.1100139 0.08212,0.071277 0.125509,0.1688947 0.04493,0.096068 0.04493,0.2138299 V 4.1148129 H 17.757177 V 3.8467507 h -0.0046 q -0.03564,0.075925 -0.103816,0.1441028 -0.06663,0.066628 -0.171994,0.1084644 -0.105365,0.040287 -0.252567,0.040287 z m 0.02479,-0.1812906 q 0.164246,0 0.277359,-0.06198 0.113113,-0.06198 0.171994,-0.1704441 0.05888,-0.110014 0.05888,-0.2510177 V 3.2455477 q -0.02169,0.020143 -0.06353,0.035638 -0.04184,0.013946 -0.100717,0.027891 -0.05888,0.012396 -0.130157,0.023242 -0.07128,0.010846 -0.151851,0.021693 -0.136355,0.018594 -0.237072,0.055782 -0.100717,0.035638 -0.156499,0.097618 -0.05423,0.06043 -0.05423,0.1595977 0,0.092969 0.04958,0.1580482 0.04958,0.065079 0.136355,0.099167 0.08677,0.034089 0.199885,0.034089 z m 1.104788,0.8041865 V 2.478549 h 0.195236 v 0.308349 h 0.0016 q 0.04648,-0.103816 0.130157,-0.1797411 0.08367,-0.075925 0.193687,-0.1162119 0.110014,-0.041836 0.232423,-0.041836 0.209182,0 0.370329,0.106915 0.161147,0.1053654 0.251018,0.2975025 0.09142,0.1905875 0.09142,0.4431547 0,0.2525673 -0.09142,0.4431548 -0.08987,0.1905876 -0.251018,0.2975025 -0.159598,0.106915 -0.370329,0.106915 -0.122409,0 -0.229324,-0.040287 -0.106915,-0.040287 -0.189038,-0.1162119 -0.08212,-0.077475 -0.133257,-0.1828401 h -0.0031 v 0.9575862 z m 0.725163,-0.8010875 q 0.156498,0 0.277359,-0.077475 0.12241,-0.077475 0.192137,-0.2262259 0.06973,-0.1487512 0.06973,-0.3610317 0,-0.2138299 -0.06973,-0.3625811 -0.06973,-0.1487513 -0.192137,-0.2262259 -0.120861,-0.077475 -0.277359,-0.077475 -0.164247,0 -0.286657,0.082123 -0.12086,0.082123 -0.187488,0.2324238 -0.06663,0.1487513 -0.06663,0.3517347 0,0.201434 0.06663,0.3517348 0.06663,0.1487512 0.187488,0.2308743 0.12241,0.082123 0.286657,0.082123 z"
         id="text1"
         style="font-size:3.17336px;font-family:'Inter Variable';-inkscape-font-specification:'Inter Variable, @opsz=32,wght=300';font-variation-settings:'opsz' 32, 'wght' 300;fill:#c0c0c0;stroke-width:0.149922"
         aria-label="BatBox-Snap&#10;" />
      <path
         d="M 15.494402,7.6329503 14.848264,5.9966865 h 0.215379 l 0.388923,0.9994225 q 0.04649,0.1177614 0.08832,0.2370723 0.04339,0.1177614 0.08522,0.2355228 h -0.04958 q 0.04339,-0.1177614 0.08522,-0.2355228 0.04339,-0.1193109 0.08832,-0.2370723 l 0.385823,-0.9994225 h 0.212281 l -0.647688,1.6362638 z m 1.750927,-2.3087434 v 2.3087434 h -0.202984 v -2.093364 h -0.0031 l -0.551619,0.3656802 v -0.216929 l 0.545421,-0.3641306 z m 0.576411,2.3319858 q -0.06508,0 -0.111564,-0.044935 -0.04649,-0.046485 -0.04649,-0.1115634 0,-0.066628 0.04649,-0.1115635 0.04649,-0.044935 0.111564,-0.044935 0.06663,0 0.111563,0.044935 0.04494,0.044935 0.04494,0.1115635 0,0.065079 -0.04494,0.1115634 -0.04493,0.044935 -0.111563,0.044935 z m 1.182777,0.0093 q -0.247919,0 -0.432309,-0.1472017 -0.18284,-0.1472018 -0.285106,-0.4137144 -0.100717,-0.2665127 -0.100717,-0.6244454 0,-0.3594822 0.100717,-0.6259949 0.102266,-0.2680621 0.285106,-0.4152639 0.18439,-0.1472018 0.432309,-0.1472018 0.246369,0 0.429209,0.1472018 0.18439,0.1472018 0.285107,0.4152639 0.100717,0.2665127 0.100717,0.6259949 0,0.3579327 -0.100717,0.6244454 -0.100717,0.2665126 -0.285107,0.4137144 -0.18284,0.1472017 -0.429209,0.1472017 z m 0,-0.189038 q 0.187488,0 0.325393,-0.1224099 0.137905,-0.1224099 0.21383,-0.3455368 0.07747,-0.2246763 0.07747,-0.5283768 0,-0.30525 -0.07747,-0.5299264 -0.07592,-0.2246763 -0.21383,-0.3470862 -0.137905,-0.1224099 -0.325393,-0.1224099 -0.187489,0 -0.326943,0.1224099 -0.139454,0.1224099 -0.21538,0.3470862 -0.07593,0.2246764 -0.07593,0.5299264 0,0.3037005 0.07593,0.5283768 0.07593,0.2231269 0.21538,0.3455368 0.139454,0.1224099 0.326943,0.1224099 z"
         id="text1-9"
         style="font-size:3.17336px;font-family:'Inter Variable';-inkscape-font-specification:'Inter Variable, @opsz=32,wght=300';font-variation-settings:'opsz' 32, 'wght' 300;fill:#c0c0c0;stroke-width:0.149922"
         aria-label="v1.0" />
    </g>
  </g>
</svg>
