<?xml version="1.0" encoding="UTF-8" standalone="no"?>
<!-- Created with Inkscape (http://www.inkscape.org/) -->

<svg
   width="125"
   height="40"
   viewBox="0 0 33.072901 10.583333"
   version="1.1"
   id="svg1"
   inkscape:version="1.4.2 (f4327f4, 2025-05-13)"
   sodipodi:docname="Menu_Program.svg"
   inkscape:export-filename="MenuBackground.png"
   inkscape:export-xdpi="96"
   inkscape:export-ydpi="96"
   xmlns:inkscape="http://www.inkscape.org/namespaces/inkscape"
   xmlns:sodipodi="http://sodipodi.sourceforge.net/DTD/sodipodi-0.dtd"
   xmlns="http://www.w3.org/2000/svg"
   xmlns:svg="http://www.w3.org/2000/svg">
  <sodipodi:namedview
     id="namedview1"
     pagecolor="#505050"
     bordercolor="#eeeeee"
     borderopacity="1"
     inkscape:showpageshadow="0"
     inkscape:pageopacity="0"
     inkscape:pagecheckerboard="0"
     inkscape:deskcolor="#505050"
     inkscape:document-units="mm"
     inkscape:zoom="6.0934344"
     inkscape:cx="66.711147"
     inkscape:cy="39.3046"
     inkscape:window-width="1920"
     inkscape:window-height="1057"
     inkscape:window-x="1912"
     inkscape:window-y="-8"
     inkscape:window-maximized="1"
     inkscape:current-layer="layer1" />
  <defs
     id="defs1" />
  <g
     inkscape:label="Layer 1"
     inkscape:groupmode="layer"
     id="layer1">
    <rect
       style="font-variation-settings:'opsz' 32, 'wght' 500;fill:#ffffff;fill-opacity:0.01;stroke:none;stroke-width:0.3"
       id="rect1"
       width="33.072918"
       height="10.583333"
       x="0"
       y="0" />
    <path
       style="font-size:6.35px;font-family:'Inter Variable';-inkscape-font-specification:'Inter Variable, @opsz=32,wght=500';font-variation-settings:'opsz' 32, 'wght' 500;fill:#ffffff;stroke-width:0.3"
       d="M 4.9077656,6.9318767 V 2.3120037 H 6.619289 q 0.4960937,0 0.8557617,0.1767334 0.359668,0.1736328 0.5550049,0.4960937 0.1984375,0.322461 0.1984375,0.7658447 0,0.4433838 -0.2015381,0.7658448 Q 7.8254169,4.8389812 7.4595478,5.0157146 7.0936786,5.192448 6.5975849,5.192448 H 5.2705341 V 4.5971355 h 1.3146484 q 0.3007569,0 0.5146973,-0.1023194 0.2139404,-0.1054199 0.3317627,-0.2945556 0.1178223,-0.1891357 0.1178223,-0.449585 0,-0.2604492 -0.1178223,-0.4464843 Q 7.3138202,3.1150554 7.0998798,3.0127361 6.8859394,2.9104168 6.5851825,2.9104168 H 5.5960956 v 4.0214599 z m 3.8217869,0 V 3.657658 h 0.6263184 v 0.5302001 h 0.012402 q 0.089917,-0.2697509 0.2821534,-0.418579 0.1953369,-0.1519288 0.5084964,-0.1519288 0.07441,0 0.136425,0.0062 0.06511,0.0031 0.10232,0.0093 v 0.6108154 q -0.03721,-0.0093 -0.133325,-0.018603 -0.09612,-0.012402 -0.21084,-0.012402 -0.1829348,0 -0.3379641,0.083716 -0.1519287,0.083716 -0.2418457,0.2573486 -0.089917,0.1736328 -0.089917,0.4433838 v 1.9347656 z m 3.5117285,0.074414 q -0.468188,0 -0.821655,-0.217041 -0.353467,-0.217041 -0.551904,-0.6015137 -0.195337,-0.3844726 -0.195337,-0.8867675 0,-0.5084961 0.195337,-0.8929688 0.198437,-0.3875732 0.551904,-0.6046142 0.353467,-0.2201416 0.821655,-0.2201416 0.468189,0 0.818555,0.2201416 0.353467,0.217041 0.548803,0.6046142 0.198438,0.3844727 0.198438,0.8929688 0,0.5022949 -0.198438,0.8867675 -0.195336,0.3844727 -0.548803,0.6015137 -0.350366,0.217041 -0.818555,0.217041 z m 0,-0.5643066 q 0.279053,0 0.480591,-0.1395264 0.204639,-0.1426269 0.313159,-0.3999756 0.111621,-0.2573486 0.111621,-0.6015136 0,-0.3534668 -0.111621,-0.6108154 -0.10852,-0.2573487 -0.313159,-0.3999756 -0.201538,-0.142627 -0.480591,-0.142627 -0.279053,0 -0.483691,0.142627 -0.201538,0.1395263 -0.313159,0.3999756 -0.108521,0.2573486 -0.108521,0.6108154 0,0.3472656 0.108521,0.6046142 0.111621,0.2542481 0.313159,0.396875 0.201538,0.1395264 0.483691,0.1395264 z m 3.574975,1.8293457 q -0.403076,0 -0.710034,-0.1209229 Q 14.802365,8.0325847 14.61633,7.8031413 14.430295,7.5767985 14.386886,7.2574382 h 0.654224 q 0.04341,0.1581299 0.148828,0.2635498 0.108521,0.1085205 0.266651,0.1612304 0.16123,0.055811 0.359667,0.055811 0.396875,0 0.620118,-0.2139404 0.223242,-0.2139405 0.223242,-0.6108155 V 6.4171794 h -0.0031 q -0.111621,0.1891357 -0.26665,0.3131592 -0.151929,0.1240234 -0.341065,0.1860351 -0.186035,0.058911 -0.403076,0.058911 -0.42478,0 -0.747241,-0.2139405 -0.31936,-0.217041 -0.496094,-0.5953125 -0.176733,-0.381372 -0.176733,-0.8805663 0,-0.4991944 0.176733,-0.8805664 0.179834,-0.3844727 0.499195,-0.5984131 0.31936,-0.2139404 0.74104,-0.2139404 0.21394,0 0.403076,0.058911 0.192236,0.058911 0.347265,0.1860351 0.15813,0.1240235 0.266651,0.3193604 h 0.0031 V 3.657658 h 0.644922 v 3.2308105 q 0,0.4960937 -0.201538,0.7999511 -0.198437,0.3038574 -0.539502,0.4433838 -0.337964,0.1395264 -0.750342,0.1395264 z m -0.03721,-1.857251 q 0.279053,0 0.483692,-0.1395263 0.207739,-0.1395264 0.31936,-0.3937745 0.114722,-0.2573486 0.114722,-0.598413 0,-0.3441651 -0.114722,-0.5984131 -0.111621,-0.2542481 -0.31936,-0.3937744 -0.204639,-0.1395264 -0.483692,-0.1395264 -0.263549,0 -0.465087,0.1302246 -0.198438,0.127124 -0.31316,0.3813721 -0.111621,0.2511474 -0.111621,0.6201172 0,0.3658691 0.111621,0.6201171 0.114722,0.2511475 0.31316,0.3813721 0.201538,0.1302246 0.465087,0.1302246 z m 2.266529,0.5177979 V 3.657658 h 0.626318 v 0.5302001 h 0.0124 q 0.08992,-0.2697509 0.282153,-0.418579 0.195337,-0.1519288 0.508496,-0.1519288 0.07441,0 0.136426,0.0062 0.06511,0.0031 0.102319,0.0093 v 0.6108154 q -0.03721,-0.0093 -0.133325,-0.018603 -0.09612,-0.012402 -0.21084,-0.012402 -0.182935,0 -0.337964,0.083716 -0.151929,0.083716 -0.241846,0.2573486 -0.08992,0.1736328 -0.08992,0.4433838 v 1.9347656 z m 3.071942,0.05271 q -0.325562,0 -0.582911,-0.1116211 -0.254248,-0.1116211 -0.403076,-0.3317627 -0.148828,-0.2201416 -0.148828,-0.5457031 0,-0.2790527 0.10542,-0.4588867 0.108521,-0.179834 0.291455,-0.2852539 0.182935,-0.1054199 0.415479,-0.1581299 0.232544,-0.05581 0.48059,-0.083716 0.310059,-0.040308 0.486792,-0.062012 0.179834,-0.024805 0.254248,-0.074414 0.07752,-0.05271 0.07752,-0.1705322 v -0.027905 q 0,-0.1581298 -0.07752,-0.2790527 -0.07751,-0.1240234 -0.226342,-0.1953369 -0.148828,-0.071313 -0.356568,-0.071313 -0.207739,0 -0.368969,0.068213 -0.15813,0.068213 -0.254248,0.1891357 -0.09302,0.1178223 -0.10542,0.269751 H 20.06332 q 0.0155,-0.3131592 0.189136,-0.5519043 0.173633,-0.2387451 0.47749,-0.3751709 0.303858,-0.1364257 0.713135,-0.1364257 0.300757,0 0.542603,0.077515 0.241845,0.077515 0.409277,0.2232422 0.170532,0.1426269 0.257349,0.344165 0.08992,0.2015381 0.08992,0.449585 V 6.9318767 H 22.097305 V 6.4667888 h -0.0124 q -0.06821,0.1333252 -0.186035,0.2511474 -0.117822,0.1178223 -0.310058,0.1922364 -0.189136,0.074414 -0.471289,0.074414 z M 21.250845,6.457487 q 0.288354,0 0.474389,-0.1023193 0.189136,-0.1054199 0.279053,-0.2759522 0.09302,-0.1705322 0.09302,-0.3720703 V 5.3226726 q -0.03411,0.027905 -0.111621,0.05271 -0.07441,0.021704 -0.182935,0.043408 -0.10852,0.018604 -0.235644,0.040308 -0.127125,0.021704 -0.254249,0.037207 -0.179834,0.024805 -0.334863,0.083716 -0.155029,0.055811 -0.251147,0.1581299 -0.09302,0.1023193 -0.09302,0.269751 0,0.1395263 0.07441,0.2418457 0.07441,0.099219 0.213941,0.1550293 0.139526,0.05271 0.328662,0.05271 z m 2.229321,0.4743897 V 3.657658 h 0.63562 v 0.6914306 h -0.06201 q 0.09302,-0.2480469 0.248047,-0.4154785 0.158129,-0.1705322 0.362768,-0.254248 0.204639,-0.086816 0.427881,-0.086816 0.381372,0 0.651123,0.2201416 0.272851,0.217041 0.334863,0.5364013 h -0.102319 q 0.06821,-0.217041 0.220141,-0.3875732 0.15503,-0.1705322 0.378272,-0.269751 0.223242,-0.099219 0.496094,-0.099219 0.306958,0 0.555005,0.1333251 0.248046,0.1333252 0.393774,0.396875 0.145728,0.2604493 0.145728,0.6542237 V 6.9318767 H 27.507827 V 4.83278 q 0,-0.3503662 -0.195337,-0.5084961 -0.195337,-0.1581299 -0.461987,-0.1581299 -0.217041,0 -0.375171,0.093018 -0.15813,0.093018 -0.244946,0.2542481 Q 26.14357,4.6746501 26.14357,4.88549 V 6.9318767 H 25.498648 V 4.7893718 q 0,-0.2821533 -0.182935,-0.4526855 -0.179834,-0.1705323 -0.458887,-0.1705323 -0.189135,0 -0.356567,0.089917 -0.164331,0.089917 -0.26665,0.2666504 -0.09922,0.1736328 -0.09922,0.434082 v 1.9750733 z"
       id="text1"
       aria-label="Program" />
  </g>
</svg>
